<?xml version="1.0" standalone="no"?><!DOCTYPE svg PUBLIC "-//W3C//DTD SVG 1.1//EN"
        "http://www.w3.org/Graphics/SVG/1.1/DTD/svg11.dtd">
<svg class="icon" viewBox="0 0 1024 1024" version="1.1" xmlns="http://www.w3.org/2000/svg"
     width="200" height="200">
    <defs>
        <style type="text/css"></style>
    </defs>
    <path d="M816.852 587.042c0-18.67-6.644-35.013-19.933-49.023L411.79 153.428c-13.645-13.653-31.958-25.228-54.94-34.742-22.981-9.515-43.992-14.275-63.026-14.275H69.749c-18.67 0-34.835 6.83-48.474 20.468C7.623 138.524 0.8 154.683 0.8 173.36v224.077c0 19.033 4.754 40.03 14.275 63.019 9.52 22.988 21.104 41.115 34.742 54.404l385.134 385.67c13.29 13.29 29.446 19.933 48.473 19.933 18.677 0 35.02-6.645 49.023-19.933l264.478-265.013c13.282-13.296 19.925-29.44 19.925-48.474h0.002z m-594.93-261.516c-13.467 13.467-29.718 20.204-48.752 20.204-19.027 0-35.277-6.736-48.744-20.204-13.467-13.468-20.198-29.71-20.198-48.744s6.731-35.284 20.198-48.745c13.467-13.467 29.718-20.204 48.744-20.204 19.034 0 35.284 6.737 48.752 20.204 13.46 13.46 20.198 29.711 20.198 48.745 0 19.033-6.737 35.277-20.198 48.744z"
          id="4157"></path>
    <path d="M1003.754 538.026L618.626 153.435c-13.645-13.653-31.959-25.229-54.946-34.743-22.975-9.514-43.985-14.274-63.02-14.274H380.006c19.034 0 40.038 4.76 63.02 14.274 22.987 9.52 41.3 21.097 54.946 34.743l385.127 384.591c13.296 14.002 19.947 30.346 19.947 49.017 0 19.033-6.651 35.179-19.947 48.473l-253.16 253.167c10.783 11.133 20.29 19.206 28.548 24.236 8.257 5.03 18.855 7.545 31.781 7.545 18.677 0 35.02-6.645 49.017-19.934l264.472-265.013c13.296-13.295 19.947-29.44 19.947-48.473-0.006-18.67-6.651-35.013-19.947-49.017l-0.002-0.001z"
          id="4158"></path>
</svg>