<?xml version="1.0" standalone="no"?><!DOCTYPE svg PUBLIC "-//W3C//DTD SVG 1.1//EN"
        "http://www.w3.org/Graphics/SVG/1.1/DTD/svg11.dtd">
<svg x="1594967649016" class="icon" viewBox="0 0 1024 1024" version="1.1" xmlns="http://www.w3.org/2000/svg" id="7411"
     width="200" height="200">
    <defs>
        <style type="text/css"></style>
    </defs>
    <path d="M324.437333 298.666667h375.125334c108.586667 76.8 222.122667 192 261.589333 324.266666C1030.272 861.866667 931.541333 1024 512 1024 92.458667 1024-6.272 861.866667 62.848 622.933333c39.466667-132.266667 153.002667-247.466667 261.546667-324.266666z m380.074667 435.2H546.56v-59.733334h157.952c19.712 0 29.610667-12.8 29.610667-29.866666 0-17.066667-14.805333-29.866667-29.610667-29.866667h-133.290667l113.536-98.133333c14.805333-12.8 14.805333-29.866667 0-38.4-14.805333-12.8-34.56-12.8-44.416 0L512 588.8l-128.341333-110.933333c-14.805333-12.8-34.56-12.8-44.416 0-9.856 12.8-14.805333 29.866667 0 38.4l113.493333 98.133333H319.530667c-19.712 0-29.610667 12.8-29.610667 29.866667 0 17.066667 14.805333 29.866667 29.610667 29.866666h157.952v59.733334H319.488c-19.712 0-29.610667 12.8-29.610667 29.866666 0 17.066667 14.805333 29.866667 29.610667 29.866667h157.952v76.8c0 17.066667 14.805333 29.866667 29.610667 29.866667s29.610667-12.8 29.610666-29.866667v-76.8h157.952c19.754667 0 29.610667-12.8 29.610667-29.866667 9.898667-17.066667-4.906667-29.866667-19.712-29.866666z m-217.173333-682.666667c44.373333 0 49.322667-51.2 108.586666-51.2 59.221333 0 49.365333 51.2 108.586667 51.2s88.832-34.133333 123.392 0c29.610667 34.133333-49.365333 68.266667-103.68 119.466667-54.272 51.2-54.272 85.333333-54.272 85.333333h-365.226667s4.906667-34.133333-54.314666-85.333333C191.146667 119.466667 117.12 85.333333 151.68 51.2c34.56-34.133333 69.12 0 123.392 0C329.386667 51.2 324.437333 0 378.752 0c54.272 0 64.128 51.2 108.586667 51.2z"
          fill="#d81e06" id="7412"></path>
</svg>