<?xml version="1.0" standalone="no"?><!DOCTYPE svg PUBLIC "-//W3C//DTD SVG 1.1//EN"
        "http://www.w3.org/Graphics/SVG/1.1/DTD/svg11.dtd">
<svg x="1594967681285" class="icon" viewBox="0 0 1024 1024" version="1.1" xmlns="http://www.w3.org/2000/svg" id="8406"
     width="200" height="200">
    <defs>
        <style type="text/css"></style>
    </defs>
    <path d="M1016.567893 7.253333a20.906667 20.906667 0 0 0-12.8-7.253333h-99.413333c-2.986667 0-6.4 4.266667-7.68 7.68a12.8 12.8 0 0 0 0.853333 11.52l39.253334 38.826667-262.826667 291.84L342.861227 122.026667 9.63456 384a20.906667 20.906667 0 0 0-3.413333 29.866667 20.053333 20.053333 0 0 0 16.64 8.106666 21.333333 21.333333 0 0 0 13.226666-4.266666l308.906667-243.2 335.786667 231.253333 287.146666-317.44 38.826667 38.4a9.386667 9.386667 0 0 0 9.813333 0 9.813333 9.813333 0 0 0 5.973334-8.106667V21.76a23.04 23.04 0 0 0-5.973334-14.506667zM63.39456 1024a21.333333 21.333333 0 0 1-21.333333-21.333333v-384a21.333333 21.333333 0 1 1 42.666666 0v384a20.906667 20.906667 0 0 1-20.906666 21.333333z m256 0a21.333333 21.333333 0 0 1-21.333333-21.333333v-512a21.333333 21.333333 0 1 1 42.666666 0v512a20.906667 20.906667 0 0 1-20.906666 21.333333z m128 0a20.906667 20.906667 0 0 1-20.906667-21.333333v-469.333334a21.333333 21.333333 0 1 1 42.666667 0v469.333334a21.333333 21.333333 0 0 1-21.333333 21.333333z m-256 0a20.906667 20.906667 0 0 1-19.2-21.333333v-469.333334a21.333333 21.333333 0 1 1 42.666667 0v469.333334a21.333333 21.333333 0 0 1-21.333334 21.333333z m384 0a20.906667 20.906667 0 0 1-20.906667-21.333333v-384a20.906667 20.906667 0 1 1 42.666667 0v384a20.906667 20.906667 0 0 1-20.906667 21.333333z m128 0a21.333333 21.333333 0 0 1-21.333333-21.333333v-469.333334a21.333333 21.333333 0 1 1 42.666666 0v469.333334a20.906667 20.906667 0 0 1-20.906666 21.333333z m256 0a21.333333 21.333333 0 0 1-21.333333-21.333333v-469.333334a21.333333 21.333333 0 1 1 42.666666 0v469.333334a20.906667 20.906667 0 0 1-20.906666 21.333333z m-128 0a20.906667 20.906667 0 0 1-20.906667-21.333333v-554.666667a21.333333 21.333333 0 1 1 42.666667 0v554.666667a21.333333 21.333333 0 0 1-21.333333 21.333333z"
    ></path>
</svg>